<svg xmlns="http://www.w3.org/2000/svg" viewBox="0 0 64 64" width="64" height="64">
  <defs>
    <linearGradient id="grad1" x1="0%" y1="0%" x2="100%" y2="100%">
      <stop offset="0%" style="stop-color:#6c5ce7;stop-opacity:1" />
      <stop offset="100%" style="stop-color:#a29bfe;stop-opacity:1" />
    </linearGradient>
    <linearGradient id="grad2" x1="0%" y1="0%" x2="100%" y2="100%">
      <stop offset="0%" style="stop-color:#c41e3a;stop-opacity:1" />
      <stop offset="100%" style="stop-color:#ff6b35;stop-opacity:1" />
    </linearGradient>
  </defs>
  
  <!-- Background circle -->
  <circle cx="32" cy="32" r="30" fill="url(#grad1)" opacity="0.1"/>
  
  <!-- Legal document icon -->
  <rect x="16" y="12" width="32" height="40" rx="3" ry="3" fill="url(#grad1)" stroke="#fff" stroke-width="2"/>
  
  <!-- Document lines -->
  <line x1="20" y1="20" x2="44" y2="20" stroke="#fff" stroke-width="2" stroke-linecap="round"/>
  <line x1="20" y1="26" x2="40" y2="26" stroke="#fff" stroke-width="1.5" stroke-linecap="round"/>
  <line x1="20" y1="32" x2="42" y2="32" stroke="#fff" stroke-width="1.5" stroke-linecap="round"/>
  <line x1="20" y1="38" x2="38" y2="38" stroke="#fff" stroke-width="1.5" stroke-linecap="round"/>
  
  <!-- Croatian flag element -->
  <rect x="38" y="8" width="12" height="8" rx="1" ry="1" fill="url(#grad2)"/>
  <rect x="38" y="8" width="12" height="2.67" fill="#c41e3a"/>
  <rect x="38" y="10.67" width="12" height="2.67" fill="#fff"/>
  <rect x="38" y="13.33" width="12" height="2.67" fill="#171796"/>
  
  <!-- Justice scale symbol -->
  <circle cx="52" cy="48" r="8" fill="url(#grad1)" opacity="0.9"/>
  <path d="M48 44 L56 44 M52 44 L52 52 M48 48 L50 46 M54 46 L56 48" 
        stroke="#fff" stroke-width="1.5" stroke-linecap="round" fill="none"/>
</svg>
